# xmcd
#
# Track frame offsets: 
#        182
#        18180
#        37597
#        60135
#        75250
#        98682
#        118797
#        138097
#        157150
#        189660
#        211215
#        237250
#
# Disc length: 3360 seconds
#
# Revision: 6
# Processed by: cddbd v1.5.2PL0 Copyright (c) Steve Scherf et al.
# Submitted via: ExactAudioCopyFreeDBPlugin 1.0
#
DISCID=850d1e0c
DTITLE=Robben Ford And The Blue Line - Handful Of Blues
DYEAR=1995
DGENRE=Blues
TTITLE0=Rugged Road
TTITLE1=Chevrolet
TTITLE2=When I Leave Here
TTITLE3=The Miller's Son
TTITLE4=Don't Let Me Be Misunderstood
TTITLE5=Top Of The Hill
TTITLE6=Running Out On Me
TTITLE7=Tired Of Talkin'
TTITLE8=Good Thing
TTITLE9=Think Twice
TTITLE10=I Just Want To Make Love To You
TTITLE11=Strong Will To Live
EXTD=
EXTT0=
EXTT1=
EXTT2=
EXTT3=
EXTT4=
EXTT5=
EXTT6=
EXTT7=
EXTT8=
EXTT9=
EXTT10=
EXTT11=
PLAYORDER=
